<svg xmlns="http://www.w3.org/2000/svg" viewBox="0 0 64 64" role="img" focusable="false" aria-hidden="true">
  <g fill="none" stroke="currentColor" stroke-width="1.5" stroke-linecap="round" stroke-linejoin="round" vector-effect="non-scaling-stroke" shape-rendering="geometricPrecision">
    <circle cx="32" cy="32" r="20" />
    <circle cx="32" cy="32" r="5" />
    <path d="M32 18 C38 23, 42 27, 44 32" />
    <path d="M32 18 C38 23, 42 27, 44 32" transform="rotate(60 32 32)" />
    <path d="M32 18 C38 23, 42 27, 44 32" transform="rotate(120 32 32)" />
    <path d="M32 18 C38 23, 42 27, 44 32" transform="rotate(180 32 32)" />
    <path d="M32 18 C38 23, 42 27, 44 32" transform="rotate(240 32 32)" />
    <path d="M32 18 C38 23, 42 27, 44 32" transform="rotate(300 32 32)" />
  </g>
</svg>
